# xmcd CD database file
#
# Track frame offsets:
#	150
#	6667
#	13372
#	20085
#	27157
#	33870
#	40714
#	47482
#	54320
#	63965
#	70587
#	77237
#	86931
#	93762
#	100405
#	110032
#	128697
#	131930
#	133683
#	135822
#	137547
#	139714
#	141373
#	143028
#	144690
#	146347
#	148047
#	149732
#	151413
#	153117
#	173364
#	183245
#	186067
#	188896
#	209212
#	228602
#	239584
#	260103
#	279563
#	300492
#	302178
#	303858
#	305546
#	307097
#	308745
#
# Disc length: 4136 seconds
#
# Revision: 1
# Processed by: cddbd v1.5.2PL0 Copyright (c) Steve Scherf et al.
# Submitted via: CDex 1.70beta2
#
DISCID=9a10262d
DTITLE=Rolf Tönnes - Die Jazzmethode für Gitarre (Fhythmus 1)
DYEAR=2001
DGENRE=Jazz
TTITLE0="Hallo Leute!"
TTITLE1=Swing-Übung a (S. 20)
TTITLE2=Swing-Übung b (S. 20)
TTITLE3=First 2nd Step (S. 21)
TTITLE4=Swing-Übung c (S. 23)
TTITLE5=Start To Change (S. 23)
TTITLE6=Dm G9 (S. 27)
TTITLE7=Dm G13 (S. 27)
TTITLE8=Start II V (S. 27)
TTITLE9=II V9 I (S. 28)
TTITLE10=II V13 I (S. 29)
TTITLE11=Moving Around (S. 30)
TTITLE12=II V#9 I (S. 31)
TTITLE13=II Vb13 I (S. 31)
TTITLE14=Moving Again (S. 31)
TTITLE15=Tune Down (S. 34)
TTITLE16=div. II V I (S. 35)
TTITLE17=Major-Variationen (S. 36)
TTITLE18=II V I mit melodischer Bewegung (S. 36)
TTITLE19=Major-Variationen (S. 37)
TTITLE20=IIm11 V#9 I (S. 37)
TTITLE21=Charleston Beispiel 1 (S. 39)
TTITLE22=Charleston Beispiel 2 (S. 39)
TTITLE23=Charleston Beispiel 3 (S. 39)
TTITLE24=Charleston Beispiel 4 (S. 39)
TTITLE25=I II V Charleston Beispiel 1 (S. 40)
TTITLE26=I II V Charleston Beispiel 2 (S. 40)
TTITLE27=I II V Charleston Beispiel 3 (S. 40)
TTITLE28=I II V Charleston Beispiel 4 (S. 40)
TTITLE29=Charleston Groovetrack (S. 40)
TTITLE30=You Understand (S. 41)
TTITLE31=Vorübung 1 zu Satin Doll (S. 41)
TTITLE32=Vorübung 2 zu Satin Doll (S. 41)
TTITLE33=Satin Doll (S. 42)
TTITLE34=So Long (S. 44)
TTITLE35=Night Work (S. 49)
TTITLE36=Autumn Leaves (S. 54)
TTITLE37=Days Of Wine And Roses (S. 56)
TTITLE38=How High The Moon (S. 58)
TTITLE39=E-Saite
TTITLE40=A-Saite
TTITLE41=D-Saite
TTITLE42=g-Saite
TTITLE43=h-Saite
TTITLE44=e'-Saite
EXTD=YEAR: 2001
EXTT0=
EXTT1=
EXTT2=
EXTT3=
EXTT4=
EXTT5=
EXTT6=
EXTT7=
EXTT8=
EXTT9=
EXTT10=
EXTT11=
EXTT12=
EXTT13=
EXTT14=
EXTT15=
EXTT16=
EXTT17=
EXTT18=
EXTT19=
EXTT20=
EXTT21=
EXTT22=
EXTT23=
EXTT24=
EXTT25=
EXTT26=
EXTT27=
EXTT28=
EXTT29=
EXTT30=
EXTT31=
EXTT32=
EXTT33=
EXTT34=
EXTT35=
EXTT36=
EXTT37=
EXTT38=
EXTT39=
EXTT40=
EXTT41=
EXTT42=
EXTT43=
EXTT44=
PLAYORDER=
